<svg xmlns="http://www.w3.org/2000/svg" xmlns:xlink="http://www.w3.org/1999/xlink" version="1.1" width="256" height="256" viewBox="0 0 256 256" xml:space="preserve">

<defs>
</defs>
<g style="stroke: none; stroke-width: 0; stroke-dasharray: none; stroke-linecap: butt; stroke-linejoin: miter; stroke-miterlimit: 10; fill: none; fill-rule: nonzero; opacity: 1;" transform="translate(1.4065934065934016 1.4065934065934016) scale(2.81 2.81)" >
	<circle cx="45" cy="45" r="45" style="stroke: none; stroke-width: 1; stroke-dasharray: none; stroke-linecap: butt; stroke-linejoin: miter; stroke-miterlimit: 10; fill: rgb(255,202,40); fill-rule: nonzero; opacity: 1;" transform="  matrix(1 0 0 1 0 0) "/>
	<path d="M 82.583 20.258 C 84.779 25.758 86 31.752 86 38.035 C 86 64.525 64.525 86 38.035 86 c -6.283 0 -12.277 -1.221 -17.777 -3.417 C 27.358 87.266 35.858 90 45 90 c 24.853 0 45 -20.147 45 -45 C 90 35.858 87.266 27.358 82.583 20.258 z" style="stroke: none; stroke-width: 1; stroke-dasharray: none; stroke-linecap: butt; stroke-linejoin: miter; stroke-miterlimit: 10; fill: rgb(231,182,34); fill-rule: nonzero; opacity: 1;" transform=" matrix(1 0 0 1 0 0) " stroke-linecap="round" />
	<path d="M 45 74.485 L 45 74.485 c -5.576 0 -10.096 -4.52 -10.096 -10.096 V 52.494 h 20.193 v 11.894 C 55.096 69.965 50.576 74.485 45 74.485 z" style="stroke: none; stroke-width: 1; stroke-dasharray: none; stroke-linecap: butt; stroke-linejoin: miter; stroke-miterlimit: 10; fill: rgb(234,84,38); fill-rule: nonzero; opacity: 1;" transform=" matrix(1 0 0 1 0 0) " stroke-linecap="round" />
	<path d="M 68.835 41.032 H 53.855 c -0.847 0 -1.602 -0.533 -1.885 -1.332 s -0.033 -1.688 0.625 -2.222 l 13.506 -10.957 c 0.856 -0.697 2.117 -0.564 2.813 0.293 c 0.696 0.858 0.565 2.118 -0.293 2.813 l -9.126 7.403 h 9.34 c 1.104 0 2 0.896 2 2 S 69.939 41.032 68.835 41.032 z" style="stroke: none; stroke-width: 1; stroke-dasharray: none; stroke-linecap: butt; stroke-linejoin: miter; stroke-miterlimit: 10; fill: rgb(96,67,35); fill-rule: nonzero; opacity: 1;" transform=" matrix(1 0 0 1 0 0) " stroke-linecap="round" />
	<path d="M 36.145 41.032 H 21.165 c -1.104 0 -2 -0.896 -2 -2 s 0.896 -2 2 -2 h 9.34 l -9.126 -7.403 c -0.857 -0.696 -0.989 -1.956 -0.293 -2.813 c 0.696 -0.858 1.955 -0.989 2.813 -0.293 l 13.505 10.957 c 0.657 0.534 0.908 1.423 0.625 2.222 C 37.747 40.499 36.991 41.032 36.145 41.032 z" style="stroke: none; stroke-width: 1; stroke-dasharray: none; stroke-linecap: butt; stroke-linejoin: miter; stroke-miterlimit: 10; fill: rgb(96,67,35); fill-rule: nonzero; opacity: 1;" transform=" matrix(1 0 0 1 0 0) " stroke-linecap="round" />
	<path d="M 68.79 54.494 H 21.21 c -1.104 0 -2 -0.896 -2 -2 s 0.896 -2 2 -2 h 47.58 c 1.104 0 2 0.896 2 2 S 69.895 54.494 68.79 54.494 z" style="stroke: none; stroke-width: 1; stroke-dasharray: none; stroke-linecap: butt; stroke-linejoin: miter; stroke-miterlimit: 10; fill: rgb(96,67,35); fill-rule: nonzero; opacity: 1;" transform=" matrix(1 0 0 1 0 0) " stroke-linecap="round" />
	<path d="M 45 76.485 c -6.67 0 -12.096 -5.427 -12.096 -12.097 V 52.494 c 0 -1.104 0.896 -2 2 -2 h 20.193 c 1.104 0 2 0.896 2 2 v 11.895 C 57.097 71.059 51.67 76.485 45 76.485 z M 36.904 54.494 v 9.895 c 0 4.465 3.632 8.097 8.096 8.097 c 4.465 0 8.097 -3.632 8.097 -8.097 v -9.895 H 36.904 z" style="stroke: none; stroke-width: 1; stroke-dasharray: none; stroke-linecap: butt; stroke-linejoin: miter; stroke-miterlimit: 10; fill: rgb(96,67,35); fill-rule: nonzero; opacity: 1;" transform=" matrix(1 0 0 1 0 0) " stroke-linecap="round" />
</g>
</svg>