<svg xmlns="http://www.w3.org/2000/svg" xmlns:xlink="http://www.w3.org/1999/xlink" version="1.1" width="256" height="256" viewBox="0 0 256 256" xml:space="preserve">

<defs>
</defs>
<g style="stroke: none; stroke-width: 0; stroke-dasharray: none; stroke-linecap: butt; stroke-linejoin: miter; stroke-miterlimit: 10; fill: none; fill-rule: nonzero; opacity: 1;" transform="translate(1.4065934065934016 1.4065934065934016) scale(2.81 2.81)" >
	<circle cx="45" cy="45" r="45" style="stroke: none; stroke-width: 1; stroke-dasharray: none; stroke-linecap: butt; stroke-linejoin: miter; stroke-miterlimit: 10; fill: rgb(255,202,40); fill-rule: nonzero; opacity: 1;" transform="  matrix(1 0 0 1 0 0) "/>
	<path d="M 82.583 20.258 C 84.779 25.758 86 31.752 86 38.035 C 86 64.525 64.525 86 38.035 86 c -6.283 0 -12.277 -1.221 -17.777 -3.417 C 27.358 87.266 35.858 90 45 90 c 24.853 0 45 -20.147 45 -45 C 90 35.858 87.266 27.358 82.583 20.258 z" style="stroke: none; stroke-width: 1; stroke-dasharray: none; stroke-linecap: butt; stroke-linejoin: miter; stroke-miterlimit: 10; fill: rgb(231,182,34); fill-rule: nonzero; opacity: 1;" transform=" matrix(1 0 0 1 0 0) " stroke-linecap="round" />
	<path d="M 45 69.345 c -7.954 0 -15.337 -3.969 -19.751 -10.617 c -0.611 -0.92 -0.36 -2.162 0.56 -2.772 c 0.92 -0.613 2.162 -0.36 2.772 0.56 c 3.671 5.529 9.809 8.83 16.419 8.83 c 6.61 0 12.748 -3.301 16.419 -8.83 c 0.61 -0.921 1.85 -1.173 2.772 -0.56 c 0.92 0.61 1.171 1.853 0.56 2.772 C 60.337 65.376 52.953 69.345 45 69.345 z" style="stroke: none; stroke-width: 1; stroke-dasharray: none; stroke-linecap: butt; stroke-linejoin: miter; stroke-miterlimit: 10; fill: rgb(96,67,35); fill-rule: nonzero; opacity: 1;" transform=" matrix(1 0 0 1 0 0) " stroke-linecap="round" />
	<path d="M 30.355 25.966 l 2.092 4.239 c 0.139 0.281 0.407 0.476 0.718 0.521 l 4.678 0.68 c 0.782 0.114 1.094 1.074 0.528 1.626 l -3.385 3.299 c -0.225 0.219 -0.327 0.534 -0.274 0.844 l 0.799 4.659 c 0.134 0.779 -0.684 1.372 -1.383 1.005 l -4.184 -2.2 c -0.278 -0.146 -0.609 -0.146 -0.887 0 l -4.184 2.2 c -0.699 0.368 -1.516 -0.226 -1.383 -1.005 l 0.799 -4.659 c 0.053 -0.309 -0.049 -0.625 -0.274 -0.844 l -3.385 -3.299 c -0.566 -0.551 -0.254 -1.512 0.528 -1.626 l 4.678 -0.68 c 0.31 -0.045 0.579 -0.24 0.718 -0.521 l 2.092 -4.239 C 28.995 25.257 30.005 25.257 30.355 25.966 z" style="stroke: none; stroke-width: 1; stroke-dasharray: none; stroke-linecap: butt; stroke-linejoin: miter; stroke-miterlimit: 10; fill: rgb(16,133,198); fill-rule: nonzero; opacity: 1;" transform=" matrix(1 0 0 1 0 0) " stroke-linecap="round" />
	<path d="M 61.355 25.966 l 2.092 4.239 c 0.139 0.281 0.407 0.476 0.718 0.521 l 4.678 0.68 c 0.782 0.114 1.094 1.074 0.528 1.626 l -3.385 3.299 c -0.225 0.219 -0.327 0.534 -0.274 0.844 l 0.799 4.659 c 0.134 0.779 -0.684 1.372 -1.383 1.005 l -4.184 -2.2 c -0.278 -0.146 -0.609 -0.146 -0.887 0 l -4.184 2.2 c -0.699 0.368 -1.516 -0.226 -1.383 -1.005 l 0.799 -4.659 c 0.053 -0.309 -0.049 -0.625 -0.274 -0.844 l -3.385 -3.299 c -0.566 -0.551 -0.254 -1.512 0.528 -1.626 l 4.678 -0.68 c 0.31 -0.045 0.579 -0.24 0.718 -0.521 l 2.092 -4.239 C 59.995 25.257 61.005 25.257 61.355 25.966 z" style="stroke: none; stroke-width: 1; stroke-dasharray: none; stroke-linecap: butt; stroke-linejoin: miter; stroke-miterlimit: 10; fill: rgb(16,133,198); fill-rule: nonzero; opacity: 1;" transform=" matrix(1 0 0 1 0 0) " stroke-linecap="round" />
</g>
</svg>