<svg xmlns="http://www.w3.org/2000/svg" xmlns:xlink="http://www.w3.org/1999/xlink" version="1.1" width="256" height="256" viewBox="0 0 256 256" xml:space="preserve">

<defs>
</defs>
<g style="stroke: none; stroke-width: 0; stroke-dasharray: none; stroke-linecap: butt; stroke-linejoin: miter; stroke-miterlimit: 10; fill: none; fill-rule: nonzero; opacity: 1;" transform="translate(1.4065934065934016 1.4065934065934016) scale(2.81 2.81)" >
	<circle cx="45" cy="45" r="45" style="stroke: none; stroke-width: 1; stroke-dasharray: none; stroke-linecap: butt; stroke-linejoin: miter; stroke-miterlimit: 10; fill: rgb(237,180,0); fill-rule: nonzero; opacity: 1;" transform="  matrix(1 0 0 1 0 0) "/>
	<path d="M 36.692 37.074 c 1.901 -0.674 3.892 0.689 3.996 2.703 c 0.302 5.852 -3.232 11.45 -9.037 13.508 c -5.805 2.058 -12.077 -0.063 -15.528 -4.798 c -1.188 -1.63 -0.5 -3.942 1.401 -4.616 L 36.692 37.074 z" style="stroke: none; stroke-width: 1; stroke-dasharray: none; stroke-linecap: butt; stroke-linejoin: miter; stroke-miterlimit: 10; fill: rgb(255,255,255); fill-rule: nonzero; opacity: 1;" transform=" matrix(1 0 0 1 0 0) " stroke-linecap="round" />
	<path d="M 53.308 37.074 c -1.901 -0.674 -3.892 0.689 -3.996 2.703 c -0.302 5.852 3.232 11.45 9.037 13.508 c 5.805 2.058 12.077 -0.063 15.528 -4.798 c 1.188 -1.63 0.5 -3.942 -1.401 -4.616 L 53.308 37.074 z" style="stroke: none; stroke-width: 1; stroke-dasharray: none; stroke-linecap: butt; stroke-linejoin: miter; stroke-miterlimit: 10; fill: rgb(255,255,255); fill-rule: nonzero; opacity: 1;" transform=" matrix(1 0 0 1 0 0) " stroke-linecap="round" />
	<path d="M 30.162 71.696 c -0.654 0.28 -1.243 -0.496 -0.806 -1.058 c 1.543 -1.985 3.459 -3.688 5.665 -5.052 c 2.9 -1.783 6.399 -2.892 9.979 -2.902 c 3.581 0.002 7.081 1.112 9.982 2.895 c 2.212 1.366 4.131 3.075 5.674 5.068 c 0.435 0.562 -0.152 1.336 -0.806 1.057 c -2.257 -0.963 -4.394 -1.88 -6.539 -2.566 c -2.802 -0.916 -5.559 -1.437 -8.312 -1.456 c -2.753 0.012 -5.512 0.534 -8.315 1.45 C 34.545 69.816 32.411 70.732 30.162 71.696 z" style="stroke: none; stroke-width: 1; stroke-dasharray: none; stroke-linecap: butt; stroke-linejoin: miter; stroke-miterlimit: 10; fill: rgb(0,0,0); fill-rule: nonzero; opacity: 1;" transform=" matrix(1 0 0 1 0 0) " stroke-linecap="round" />
	<circle cx="30.13" cy="49" r="4" style="stroke: none; stroke-width: 1; stroke-dasharray: none; stroke-linecap: butt; stroke-linejoin: miter; stroke-miterlimit: 10; fill: rgb(0,0,0); fill-rule: nonzero; opacity: 1;" transform="  matrix(1 0 0 1 0 0) "/>
	<circle cx="59.87" cy="49" r="4" style="stroke: none; stroke-width: 1; stroke-dasharray: none; stroke-linecap: butt; stroke-linejoin: miter; stroke-miterlimit: 10; fill: rgb(0,0,0); fill-rule: nonzero; opacity: 1;" transform="  matrix(1 0 0 1 0 0) "/>
	<path d="M 12.108 37.055 c -0.676 -0.031 -0.892 -0.942 -0.308 -1.285 c 1.878 -1.103 3.754 -2.027 5.599 -2.947 c 2.427 -1.19 4.805 -2.326 7.108 -3.52 c 2.302 -1.197 4.528 -2.44 6.681 -3.867 c 1.659 -1.088 3.254 -2.288 4.913 -3.654 c 0.526 -0.433 1.294 0.083 1.091 0.733 c -0.672 2.151 -1.895 4.14 -3.386 5.853 c -1.968 2.248 -4.405 4.036 -7.001 5.373 c -2.601 1.341 -5.365 2.256 -8.174 2.801 C 16.484 36.942 14.312 37.155 12.108 37.055 z" style="stroke: none; stroke-width: 1; stroke-dasharray: none; stroke-linecap: butt; stroke-linejoin: miter; stroke-miterlimit: 10; fill: rgb(0,0,0); fill-rule: nonzero; opacity: 1;" transform=" matrix(1 0 0 1 0 0) " stroke-linecap="round" />
	<path d="M 78.2 35.771 c 0.584 0.343 0.368 1.254 -0.308 1.285 c -2.204 0.099 -4.376 -0.113 -6.522 -0.512 c -2.81 -0.545 -5.574 -1.459 -8.174 -2.801 c -2.595 -1.337 -5.033 -3.125 -7.001 -5.373 c -1.491 -1.713 -2.714 -3.702 -3.386 -5.853 c -0.203 -0.65 0.566 -1.166 1.091 -0.733 c 1.659 1.366 3.254 2.565 4.913 3.654 c 2.153 1.427 4.378 2.67 6.681 3.867 c 2.303 1.194 4.681 2.33 7.108 3.52 C 74.446 33.743 76.322 34.668 78.2 35.771 z" style="stroke: none; stroke-width: 1; stroke-dasharray: none; stroke-linecap: butt; stroke-linejoin: miter; stroke-miterlimit: 10; fill: rgb(0,0,0); fill-rule: nonzero; opacity: 1;" transform=" matrix(1 0 0 1 0 0) " stroke-linecap="round" />
</g>
</svg>